<?xml version="1.0" standalone="no"?><!DOCTYPE svg PUBLIC "-//W3C//DTD SVG 1.1//EN" "http://www.w3.org/Graphics/SVG/1.1/DTD/svg11.dtd"><svg t="1647294813208" class="icon" viewBox="0 0 1024 1024" version="1.1" xmlns="http://www.w3.org/2000/svg" p-id="3177" xmlns:xlink="http://www.w3.org/1999/xlink" width="200" height="200"><defs><style type="text/css"></style></defs><path d="M512 85.317818a426.682182 426.682182 0 1 1 0 853.364364 426.682182 426.682182 0 0 1 0-853.364364z m-0.558545 466.013091c-50.827636 0-96.209455 17.547636-135.447273 46.545455a267.543273 267.543273 0 0 0-45.009455 42.170181 147.037091 147.037091 0 0 0-3.770182 4.747637 30.021818 30.021818 0 0 0 48.267637 35.653818l-0.046546 0.093091 0.093091-0.186182 1.722182-2.094545a207.918545 207.918545 0 0 1 34.443636-32.116364c29.556364-21.876364 62.976-34.816 99.74691-34.816 36.770909 0 70.144 12.939636 99.746909 34.769455a207.918545 207.918545 0 0 1 34.443636 32.116363 87.505455 87.505455 0 0 1 1.861818 2.327273h-0.046545a29.975273 29.975273 0 1 0 47.010909-37.236364 218.298182 218.298182 0 0 0-12.101818-13.963636 267.543273 267.543273 0 0 0-35.514182-31.464727c-39.237818-28.997818-84.619636-46.545455-135.447273-46.545455zM390.702545 351.418182h-0.465454a30.021818 30.021818 0 0 0 0 59.997091h0.465454a30.021818 30.021818 0 0 0 0-60.043637z m239.895273 0h-0.418909a30.021818 30.021818 0 1 0 0 59.997091h0.418909a30.021818 30.021818 0 1 0 0-60.043637z" fill="#ffffff" p-id="3178"></path></svg>