<?xml version="1.0" standalone="no"?><!DOCTYPE svg PUBLIC "-//W3C//DTD SVG 1.1//EN" "http://www.w3.org/Graphics/SVG/1.1/DTD/svg11.dtd"><svg t="1647294836216" class="icon" viewBox="0 0 1024 1024" version="1.1" xmlns="http://www.w3.org/2000/svg" p-id="3316" xmlns:xlink="http://www.w3.org/1999/xlink" width="200" height="200"><defs><style type="text/css"></style></defs><path d="M512 85.317818a426.682182 426.682182 0 1 1 0 853.364364 426.682182 426.682182 0 0 1 0-853.364364z m138.612364 474.298182l-3.165091 3.677091a41.565091 41.565091 0 0 1-1.815273 2.234182 207.918545 207.918545 0 0 1-34.443636 32.116363c-29.602909 21.876364-63.022545 34.816-99.746909 34.816-36.770909 0-70.190545-12.939636-99.74691-34.769454a207.918545 207.918545 0 0 1-34.443636-32.116364 87.505455 87.505455 0 0 1-1.536-1.954909l-0.186182-0.186182-0.046545-0.093091a30.021818 30.021818 0 1 0-47.104 37.189819l2.606545 3.258181a267.543273 267.543273 0 0 0 45.056 42.170182c39.191273 28.951273 84.573091 46.545455 135.400728 46.545455 50.781091 0 96.162909-17.594182 135.400727-46.545455a267.543273 267.543273 0 0 0 45.056-42.216727 147.037091 147.037091 0 0 0 3.770182-4.747636 30.021818 30.021818 0 0 0-45.056-39.33091zM390.702545 351.418182h-0.465454a30.021818 30.021818 0 0 0 0 59.997091h0.465454a30.021818 30.021818 0 0 0 0-60.043637z m239.895273 0h-0.418909a30.021818 30.021818 0 1 0 0 59.997091h0.418909a30.021818 30.021818 0 1 0 0-60.043637z" fill="#ffffff" p-id="3317"></path></svg>