<?xml version="1.0" standalone="no"?><!DOCTYPE svg PUBLIC "-//W3C//DTD SVG 1.1//EN" "http://www.w3.org/Graphics/SVG/1.1/DTD/svg11.dtd"><svg t="1647294853621" class="icon" viewBox="0 0 1024 1024" version="1.1" xmlns="http://www.w3.org/2000/svg" p-id="3455" xmlns:xlink="http://www.w3.org/1999/xlink" width="200" height="200"><defs><style type="text/css"></style></defs><path d="M512 85.317818a426.682182 426.682182 0 1 1 0 853.364364 426.682182 426.682182 0 0 1 0-853.364364z m159.511273 506.507637H351.325091a30.021818 30.021818 0 1 0 0 60.043636h320.232727a30.021818 30.021818 0 0 0 0-60.043636zM390.702545 351.418182h-0.465454a30.021818 30.021818 0 0 0 0 59.997091h0.465454a30.021818 30.021818 0 0 0 0-60.043637z m239.895273 0h-0.418909a30.021818 30.021818 0 1 0 0 59.997091h0.418909a30.021818 30.021818 0 1 0 0-60.043637z" fill="#ffffff" p-id="3456"></path></svg>